<svg width="32.000000" height="32.000000" viewBox="0 0 32 32" fill="none" xmlns="http://www.w3.org/2000/svg" xmlns:xlink="http://www.w3.org/1999/xlink">
	<desc>
			Created with Pixso.
	</desc>
	<defs>
		<clipPath id="clip7_584">
			<rect id="Frame" width="24.000000" height="24.000000" transform="translate(4.000000 4.000000)" fill="white" fill-opacity="0"/>
		</clipPath>
	</defs>
	<rect id="Rectangle" rx="4.000000" width="32.000000" height="32.000000" fill="#158E5E" fill-opacity="1.000000"/>
	<rect id="Frame" width="24.000000" height="24.000000" transform="translate(4.000000 4.000000)" fill="#FFFFFF" fill-opacity="0"/>
	<g clip-path="url(#clip7_584)">
		<path id="Vector" d="M20.5 10L17.5 10C16.94 10 16.5 10.44 16.5 11L16.5 14L20.5 14C20.61 13.99 20.72 14.05 20.78 14.14C20.85 14.23 20.87 14.35 20.84 14.46L20.1 16.66C20.03 16.86 19.84 16.99 19.62 17L16.5 17L16.5 24.5C16.5 24.77 16.27 25 16 25L13.5 25C13.22 25 13 24.77 13 24.5L13 17L11.5 17C11.22 17 11 16.77 11 16.5L11 14.5C11 14.22 11.22 14 11.5 14L13 14L13 11C13 8.79 14.79 7 17 7L20.5 7C20.77 7 21 7.22 21 7.5L21 9.5C21 9.77 20.77 10 20.5 10Z" fill="#000000" fill-opacity="1.000000" fill-rule="nonzero"/>
	</g>
</svg>
