<svg width="32.000000" height="32.000000" viewBox="0 0 32 32" fill="none" xmlns="http://www.w3.org/2000/svg" xmlns:xlink="http://www.w3.org/1999/xlink">
	<desc>
			Created with Pixso.
	</desc>
	<defs>
		<clipPath id="clip7_592">
			<rect id="Frame" width="24.000000" height="24.000000" transform="translate(4.000000 4.000000)" fill="white" fill-opacity="0"/>
		</clipPath>
	</defs>
	<rect id="Rectangle" rx="4.000000" width="32.000000" height="32.000000" fill="#158E5E" fill-opacity="1.000000"/>
	<rect id="Frame" width="24.000000" height="24.000000" transform="translate(4.000000 4.000000)" fill="#FFFFFF" fill-opacity="0"/>
	<g clip-path="url(#clip7_592)">
		<path id="Vector" d="M20 7L12 7C9.23 7 7 9.23 7 12L7 20C7 22.76 9.23 25 12 25L20 25C22.76 25 25 22.76 25 20L25 12C25 9.23 22.76 7 20 7ZM23.25 20C23.24 21.79 21.79 23.24 20 23.25L12 23.25C10.2 23.24 8.75 21.79 8.75 20L8.75 12C8.75 10.2 10.2 8.75 12 8.75L20 8.75C21.79 8.75 23.24 10.2 23.25 12L23.25 20ZM20.75 12.25C21.3 12.25 21.75 11.8 21.75 11.25C21.75 10.69 21.3 10.25 20.75 10.25C20.19 10.25 19.75 10.69 19.75 11.25C19.75 11.8 20.19 12.25 20.75 12.25ZM16 11.5C13.51 11.5 11.5 13.51 11.5 16C11.5 18.48 13.51 20.5 16 20.5C18.48 20.5 20.5 18.48 20.5 16C20.5 14.8 20.02 13.65 19.18 12.81C18.34 11.97 17.19 11.49 16 11.5ZM13.25 16C13.25 17.51 14.48 18.75 16 18.75C17.51 18.75 18.75 17.51 18.75 16C18.75 14.48 17.51 13.25 16 13.25C14.48 13.25 13.25 14.48 13.25 16Z" fill="#000000" fill-opacity="1.000000" fill-rule="evenodd"/>
	</g>
</svg>
