<svg width="32.000000" height="32.000000" viewBox="0 0 32 32" fill="none" xmlns="http://www.w3.org/2000/svg" xmlns:xlink="http://www.w3.org/1999/xlink">
	<desc>
			Created with Pixso.
	</desc>
	<defs>
		<clipPath id="clip7_588">
			<rect id="Frame" width="24.000000" height="24.000000" transform="translate(4.000000 4.000000)" fill="white" fill-opacity="0"/>
		</clipPath>
	</defs>
	<rect id="Rectangle" rx="4.000000" width="32.000000" height="32.000000" fill="#158E5E" fill-opacity="1.000000"/>
	<rect id="Frame" width="24.000000" height="24.000000" transform="translate(4.000000 4.000000)" fill="#FFFFFF" fill-opacity="0"/>
	<g clip-path="url(#clip7_588)">
		<path id="Vector" d="M24.97 10.71C24.5 11.33 23.94 11.87 23.31 12.31C23.31 12.47 23.31 12.64 23.31 12.81C23.31 15.75 22.14 18.56 20.05 20.63C17.96 22.7 15.13 23.83 12.19 23.79C10.49 23.8 8.81 23.41 7.29 22.66C7.21 22.62 7.16 22.54 7.16 22.45L7.16 22.36C7.16 22.23 7.26 22.12 7.39 22.12C9.06 22.07 10.67 21.49 11.99 20.47C10.48 20.44 9.12 19.54 8.5 18.17C8.46 18.09 8.47 18 8.52 17.94C8.57 17.87 8.65 17.84 8.73 17.84C9.19 17.89 9.65 17.85 10.1 17.72C8.43 17.37 7.17 15.99 6.99 14.29C6.99 14.21 7.02 14.13 7.09 14.08C7.16 14.04 7.24 14.03 7.32 14.06C7.77 14.25 8.25 14.36 8.74 14.36C7.28 13.4 6.65 11.58 7.2 9.92C7.26 9.76 7.4 9.64 7.56 9.61C7.73 9.58 7.9 9.63 8.02 9.76C9.99 11.86 12.7 13.11 15.58 13.25C15.5 12.95 15.47 12.65 15.47 12.35C15.5 10.76 16.48 9.34 17.96 8.76C19.44 8.19 21.12 8.56 22.22 9.7C22.97 9.56 23.69 9.31 24.37 8.96C24.42 8.93 24.48 8.93 24.53 8.96C24.56 9.01 24.56 9.07 24.53 9.12C24.2 9.87 23.65 10.5 22.95 10.92C23.56 10.85 24.16 10.7 24.74 10.49C24.79 10.45 24.86 10.45 24.9 10.49C24.95 10.51 24.98 10.54 24.99 10.59C25 10.63 24.99 10.68 24.97 10.71Z" fill="#000000" fill-opacity="1.000000" fill-rule="nonzero"/>
	</g>
</svg>
